<?xml version="1.0" encoding="UTF-8" standalone="no"?>
<svg width="270.933mm" height="11.3771mm"
 xmlns="http://www.w3.org/2000/svg" xmlns:xlink="http://www.w3.org/1999/xlink"  version="1.2" baseProfile="tiny">
<desc>Created by EvoPdf</desc>
<defs>
</defs>
<g fill="none" stroke="black" stroke-width="1" fill-rule="evenodd" stroke-linecap="square" stroke-linejoin="bevel" >

<g fill="#000000" fill-opacity="1" stroke="#000000" stroke-opacity="1" stroke-width="1" stroke-linecap="square" stroke-linejoin="miter" stroke-miterlimit="2" transform="matrix(1,0,0,1,0,0)"
>
</g>

<g fill="#000000" fill-opacity="1" stroke="#000000" stroke-opacity="1" stroke-width="1" stroke-linecap="square" stroke-linejoin="miter" stroke-miterlimit="2" transform="matrix(1,0,0,1,0,0)"
>
</g>

<g fill="#000000" fill-opacity="1" stroke="#000000" stroke-opacity="1" stroke-width="1" stroke-linecap="square" stroke-linejoin="miter" stroke-miterlimit="2" transform="matrix(1,0,0,1,0,0)"
>
</g>

<g fill="#000000" fill-opacity="1" stroke="#000000" stroke-opacity="1" stroke-width="1" stroke-linecap="square" stroke-linejoin="miter" stroke-miterlimit="2" transform="matrix(1,0,0,1,0,0)"
>
</g>

<g fill="#000000" fill-opacity="1" stroke="#000000" stroke-opacity="1" stroke-width="1" stroke-linecap="square" stroke-linejoin="miter" stroke-miterlimit="2" transform="matrix(1,0,0,1,8,8)"
>
</g>

<g fill="#141414" fill-opacity="1" stroke="none" transform="matrix(1,0,0,1,8,8)"
>
<path vector-effect="none" fill-rule="evenodd" d="M3.05189,6.073 L0.623,6.073 C0.444391,6.07306 0.2744,6.14978 0.156191,6.28368 C0.0379818,6.41757 -0.0170752,6.59576 0.005,6.773 L1.264,16.567 L0.006,26.079 C-0.0180763,26.2562 0.0363321,26.4352 0.155,26.569 C0.273162,26.7038 0.443739,26.7811 0.623,26.781 L17.984,26.781 C18.1637,26.7812 18.3348,26.7036 18.453,26.5683 C18.5713,26.433 18.6253,26.2531 18.601,26.075 L18.489,25.233 C18.4653,25.0083 18.3215,24.8141 18.1135,24.7258 C17.9055,24.6374 17.6659,24.6689 17.4877,24.808 C17.3096,24.947 17.2209,25.1718 17.256,25.395 L17.274,25.534 L1.332,25.534 L2.509,16.646 C2.516,16.5926 2.516,16.5384 2.509,16.485 L1.33,7.312 L2.8531,7.312 C2.81807,7.66339 2.8,8.02152 2.8,8.385 C2.8,8.72852 3.07848,9.007 3.422,9.007 C3.76552,9.007 4.044,8.72852 4.044,8.385 C4.044,8.02036 4.06426,7.66204 4.10334,7.312 L14.5126,7.312 C14.5517,7.66207 14.572,8.02039 14.572,8.385 C14.5717,8.55005 14.6372,8.70841 14.7539,8.82511 C14.8706,8.94182 15.029,9.00727 15.194,9.007 C15.359,9.00727 15.5174,8.94182 15.6341,8.82511 C15.7508,8.70841 15.8163,8.55005 15.816,8.385 C15.816,8.02152 15.7979,7.66339 15.7629,7.312 L17.273,7.312 L16.264,15.148 C16.2419,15.3123 16.2863,15.4786 16.3873,15.61 C16.4883,15.7414 16.6376,15.8271 16.802,15.848 C16.9668,15.8736 17.1349,15.8305 17.2672,15.7289 C17.3994,15.6272 17.4843,15.4759 17.502,15.31 L18.602,6.773 C18.6234,6.59589 18.5681,6.41808 18.45,6.28435 C18.332,6.15062 18.1624,6.07371 17.984,6.073 L15.5641,6.073 C14.7827,2.57318 12.2735,0.006 9.308,0.006 C6.34247,0.006 3.83326,2.57318 3.05189,6.073 M4.32735,6.073 L14.2885,6.073 C13.5783,3.26978 11.6142,1.249 9.308,1.249 C7.00159,1.249 5.0373,3.2689 4.32735,6.073 "/>
</g>

<g fill="#000000" fill-opacity="1" stroke="#000000" stroke-opacity="1" stroke-width="1" stroke-linecap="square" stroke-linejoin="miter" stroke-miterlimit="2" transform="matrix(1,0,0,1,8,8)"
>
</g>

<g fill="#141414" fill-opacity="1" stroke="none" transform="matrix(1,0,0,1,8,8)"
>
<path vector-effect="none" fill-rule="nonzero" d="M17.6892,25.874 C14.6135,25.8713 12.1221,23.3765 12.1236,20.3008 C12.1251,17.2251 14.6191,14.7328 17.6948,14.7332 C20.7705,14.7336 23.2637,17.2267 23.2644,20.3024 C23.2604,23.3816 20.7624,25.8753 17.6832,25.874 L17.6892,25.874 M17.6892,16.2248 C15.4359,16.2248 13.6092,18.0515 13.6092,20.3048 C13.6092,22.5581 15.4359,24.3848 17.6892,24.3848 C19.9425,24.3848 21.7692,22.5581 21.7692,20.3048 C21.7692,19.2217 21.3385,18.183 20.5721,17.4177 C19.8056,16.6524 18.7663,16.2232 17.6832,16.2248 L17.6892,16.2248"/>
</g>

<g fill="#000000" fill-opacity="1" stroke="#000000" stroke-opacity="1" stroke-width="1" stroke-linecap="square" stroke-linejoin="miter" stroke-miterlimit="2" transform="matrix(1,0,0,1,8,8)"
>
</g>

<g fill="#141414" fill-opacity="1" stroke="none" transform="matrix(1,0,0,1,8,8)"
>
<path vector-effect="none" fill-rule="nonzero" d="M18.4356,21.0488 L19.6356,21.0488 L19.632,21.0488 C20.0442,21.0498 20.3792,20.7164 20.3802,20.3042 C20.3812,19.892 20.0478,19.557 19.6356,19.556 L18.4356,19.556 L18.4356,18.356 C18.4195,17.9551 18.0898,17.6383 17.6886,17.6383 C17.2874,17.6383 16.9577,17.9551 16.9416,18.356 L16.9416,19.556 L15.7392,19.556 C15.327,19.556 14.9928,19.8902 14.9928,20.3024 C14.9928,20.7146 15.327,21.0488 15.7392,21.0488 L16.9416,21.0488 L16.9416,22.2488 C16.9416,22.447 17.0204,22.637 17.1606,22.777 C17.3009,22.917 17.491,22.9955 17.6892,22.9952 L17.6856,22.9952 C17.8843,22.9965 18.0752,22.9184 18.2161,22.7782 C18.3569,22.6381 18.4359,22.4475 18.4356,22.2488 L18.4356,21.0488"/>
</g>

<g fill="#000000" fill-opacity="1" stroke="#000000" stroke-opacity="1" stroke-width="1" stroke-linecap="square" stroke-linejoin="miter" stroke-miterlimit="2" transform="matrix(1,0,0,1,8,8)"
>
</g>

<g fill="#000000" fill-opacity="1" stroke="#000000" stroke-opacity="1" stroke-width="1" stroke-linecap="square" stroke-linejoin="miter" stroke-miterlimit="2" transform="matrix(1,0,0,1,8,8)"
>
</g>

<g fill="#000000" fill-opacity="1" stroke="#000000" stroke-opacity="1" stroke-width="1" stroke-linecap="square" stroke-linejoin="miter" stroke-miterlimit="2" transform="matrix(1,0,0,1,0,0)"
>
</g>

<g fill="#000000" fill-opacity="1" stroke="#000000" stroke-opacity="1" stroke-width="1" stroke-linecap="square" stroke-linejoin="miter" stroke-miterlimit="2" transform="matrix(1,0,0,1,0,0)"
>
</g>

<g fill="#000000" fill-opacity="1" stroke="#000000" stroke-opacity="1" stroke-width="1" stroke-linecap="square" stroke-linejoin="miter" stroke-miterlimit="2" transform="matrix(1,0,0,1,0,0)"
>
</g>

<g fill="#000000" fill-opacity="1" stroke="#000000" stroke-opacity="1" stroke-width="1" stroke-linecap="square" stroke-linejoin="miter" stroke-miterlimit="2" transform="matrix(1,0,0,1,0,0)"
>
</g>

<g fill="#000000" fill-opacity="1" stroke="#000000" stroke-opacity="1" stroke-width="1" stroke-linecap="square" stroke-linejoin="miter" stroke-miterlimit="2" transform="matrix(1,0,0,1,8,8)"
>
</g>

<g fill="#000000" fill-opacity="1" stroke="#000000" stroke-opacity="1" stroke-width="1" stroke-linecap="square" stroke-linejoin="miter" stroke-miterlimit="2" transform="matrix(1,0,0,1,0,0)"
>
</g>

<g fill="#000000" fill-opacity="1" stroke="#000000" stroke-opacity="1" stroke-width="1" stroke-linecap="square" stroke-linejoin="miter" stroke-miterlimit="2" transform="matrix(1,0,0,1,0,0)"
>
</g>

<g fill="#000000" fill-opacity="1" stroke="#000000" stroke-opacity="1" stroke-width="1" stroke-linecap="square" stroke-linejoin="miter" stroke-miterlimit="2" transform="matrix(1,0,0,1,0,0)"
>
</g>

<g fill="#000000" fill-opacity="1" stroke="#000000" stroke-opacity="1" stroke-width="1" stroke-linecap="square" stroke-linejoin="miter" stroke-miterlimit="2" transform="matrix(1,0,0,1,0,0)"
>
</g>

<g fill="#000000" fill-opacity="1" stroke="#000000" stroke-opacity="1" stroke-width="1" stroke-linecap="square" stroke-linejoin="miter" stroke-miterlimit="2" transform="matrix(1,0,0,1,0,0)"
>
</g>

<g fill="#000000" fill-opacity="1" stroke="#000000" stroke-opacity="1" stroke-width="1" stroke-linecap="square" stroke-linejoin="miter" stroke-miterlimit="2" transform="matrix(1,0,0,1,0,0)"
>
</g>
</g>
</svg>
